<?xml version="1.0" encoding="UTF-8" standalone="no"?>
<svg
   xmlns:dc="http://purl.org/dc/elements/1.1/"
   xmlns:cc="http://creativecommons.org/ns#"
   xmlns:rdf="http://www.w3.org/1999/02/22-rdf-syntax-ns#"
   xmlns:svg="http://www.w3.org/2000/svg"
   xmlns="http://www.w3.org/2000/svg"
   xmlns:sodipodi="http://sodipodi.sourceforge.net/DTD/sodipodi-0.dtd"
   xmlns:inkscape="http://www.inkscape.org/namespaces/inkscape"
   height="65"
   version="1.1"
   width="65"
   id="svg2"
   inkscape:version="0.48.4 r9939"
   sodipodi:docname="calendar.svg">
  <metadata
     id="metadata34">
    <rdf:RDF>
      <cc:Work
         rdf:about="">
        <dc:format>image/svg+xml</dc:format>
        <dc:type
           rdf:resource="http://purl.org/dc/dcmitype/StillImage" />
      </cc:Work>
    </rdf:RDF>
  </metadata>
  <defs
     id="defs32" />
  <sodipodi:namedview
     pagecolor="#ffffff"
     bordercolor="#666666"
     borderopacity="1"
     objecttolerance="10"
     gridtolerance="10"
     guidetolerance="10"
     inkscape:pageopacity="0"
     inkscape:pageshadow="2"
     inkscape:window-width="939"
     inkscape:window-height="835"
     id="namedview30"
     showgrid="false"
     inkscape:zoom="4.9166667"
     inkscape:cx="43.804515"
     inkscape:cy="46.904108"
     inkscape:window-x="1714"
     inkscape:window-y="79"
     inkscape:window-maximized="0"
     inkscape:current-layer="svg2"
     showguides="true"
     inkscape:guide-bbox="true" />
  <path
     style="fill:#bdc3c7"
     inkscape:connector-curvature="0"
     id="path6"
     d="m 8.2768362,9.7845095 c -3.8130542,0 -6.9039548,2.7217915 -6.9039548,6.0484265 v 42.338983 c 0,3.326635 3.0909006,6.048426 6.9039548,6.048426 H 28.988701 35.892655 56.60452 c 3.814435,0 6.903955,-2.721791 6.903955,-6.048426 V 15.832936 c 0,-3.326635 -3.08952,-6.0484265 -6.903955,-6.0484265 H 35.892655 28.988701 8.2768362 z" />
  <path
     style="fill:#ecf0f1"
     inkscape:connector-curvature="0"
     id="path8"
     d="m 8.2768362,6.7602964 c -3.8130542,0 -6.9039548,2.7078804 -6.9039548,6.0484266 v 42.338983 c 0,3.341755 3.0909006,6.048426 6.9039548,6.048426 H 28.988701 35.892655 56.60452 c 3.814435,0 6.903955,-2.706671 6.903955,-6.048426 V 12.808723 c 0,-3.3405462 -3.08952,-6.0484266 -6.903955,-6.0484266 H 35.892655 28.988701 8.2768362 z" />
  <path
     style="fill:#10b7d2;fill-opacity:1"
     inkscape:connector-curvature="0"
     id="path10"
     d="m 8.2768362,6.7602964 c -3.8130542,0 -6.9039548,2.7217918 -6.9039548,6.0484266 v 9.072639 H 63.508475 v -9.072639 c 0,-3.3266348 -3.08952,-6.0484266 -6.903955,-6.0484266 H 35.892655 28.988701 8.2768362 z" />
  <path
     style="fill:#167180;fill-opacity:1"
     inkscape:connector-curvature="0"
     id="path12"
     d="m 16.90678,14.320829 a 5.1779661,4.5363196 0 0 1 -10.3559325,0 5.1779661,4.5363196 0 1 1 10.3559325,0 z" />
  <path
     style="fill:#bdc3c7"
     inkscape:connector-curvature="0"
     id="path14"
     d="m 11.728814,0.7118702 c -1.9065275,0 -3.4519778,1.3539402 -3.4519778,3.0242131 v 9.0726397 c 0,1.670272 1.5454503,3.024213 3.4519778,3.024213 1.906527,0 3.451977,-1.353941 3.451977,-3.024213 V 3.7360833 c 0,-1.6702729 -1.54545,-3.0242131 -3.451977,-3.0242131 z" />
  <path
     style="fill:#167180;fill-opacity:1"
     inkscape:connector-curvature="0"
     id="path16"
     d="m 58.330509,14.320829 a 5.1779661,4.5363197 0 0 1 -10.355933,0 5.1779661,4.5363197 0 1 1 10.355933,0 z" />
  <path
     style="fill:#bdc3c7"
     d="m 53.152542,0.71186514 c -1.905491,0 -3.451977,1.20968526 -3.451977,3.02421306 v 9.0726398 c 0,1.512106 1.546486,3.024213 3.451977,3.024213 1.905492,0 3.451978,-1.512107 3.451978,-3.024213 V 3.7360782 c 0,-1.8145278 -1.546486,-3.02421306 -3.451978,-3.02421306 z"
     id="path20"
     inkscape:connector-curvature="0" />
  <path
     style="fill:#bdc3c7"
     d="m 8.2768362,30.953996 v 6.048426 H 15.180791 V 30.953996 H 8.2768362 z m 10.3559318,0 v 6.048426 h 6.903955 v -6.048426 h -6.903955 z m 10.355933,0 v 6.048426 h 6.903954 v -6.048426 h -6.903954 z m 10.355932,0 v 6.048426 h 6.903955 v -6.048426 h -6.903955 z m 10.355932,0 v 6.048426 h 6.903955 v -6.048426 h -6.903955 z"
     id="path22"
     inkscape:connector-curvature="0" />
  <path
     style="fill:#bdc3c7"
     d="m 8.2768362,40.026635 v 6.048427 H 15.180791 V 40.026635 H 8.2768362 z m 10.3559318,0 v 6.048427 h 6.903955 v -6.048427 h -6.903955 z m 10.355933,0 v 6.048427 h 6.903954 v -6.048427 h -6.903954 z m 10.355932,0 v 6.048427 h 6.903955 v -6.048427 h -6.903955 z m 10.355932,0 v 6.048427 h 6.903955 v -6.048427 h -6.903955 z"
     id="path24"
     inkscape:connector-curvature="0" />
  <path
     style="fill:#bdc3c7"
     d="m 8.2768362,49.099275 0,6.048426 6.9039548,0 0,-6.048426 z m 10.3559318,0 0,6.048426 6.903955,0 0,-6.048426 z m 10.355933,0 0,6.048426 6.903954,0 0,-6.048426 z m 10.355932,0 0,6.048426 6.903955,0 0,-6.048426 z"
     id="path26"
     inkscape:connector-curvature="0"
     sodipodi:nodetypes="cccccccccccccccccccc" />
  <rect
     style="fill:#167180;fill-opacity:1"
     id="rect28"
     y="21.881361"
     x="1.3728814"
     width="62.135593"
     height="3.0242131" />
</svg>
