<?xml version="1.0" encoding="UTF-8" standalone="no"?>
<!-- Created with Inkscape (http://www.inkscape.org/) -->

<svg
   xmlns:dc="http://purl.org/dc/elements/1.1/"
   xmlns:cc="http://creativecommons.org/ns#"
   xmlns:rdf="http://www.w3.org/1999/02/22-rdf-syntax-ns#"
   xmlns:svg="http://www.w3.org/2000/svg"
   xmlns="http://www.w3.org/2000/svg"
   xmlns:sodipodi="http://sodipodi.sourceforge.net/DTD/sodipodi-0.dtd"
   xmlns:inkscape="http://www.inkscape.org/namespaces/inkscape"
   width="65"
   height="65"
   id="svg3913"
   version="1.1"
   inkscape:version="0.48.4 r9939"
   sodipodi:docname="New document 7">
  <defs
     id="defs3915" />
  <sodipodi:namedview
     id="base"
     pagecolor="#ffffff"
     bordercolor="#666666"
     borderopacity="1.0"
     inkscape:pageopacity="0.0"
     inkscape:pageshadow="2"
     inkscape:zoom="2.8"
     inkscape:cx="40.567983"
     inkscape:cy="32.89441"
     inkscape:document-units="px"
     inkscape:current-layer="layer1"
     showgrid="false"
     inkscape:window-width="511"
     inkscape:window-height="452"
     inkscape:window-x="2419"
     inkscape:window-y="158"
     inkscape:window-maximized="0" />
  <metadata
     id="metadata3918">
    <rdf:RDF>
      <cc:Work
         rdf:about="">
        <dc:format>image/svg+xml</dc:format>
        <dc:type
           rdf:resource="http://purl.org/dc/dcmitype/StillImage" />
        <dc:title></dc:title>
      </cc:Work>
    </rdf:RDF>
  </metadata>
  <g
     inkscape:label="Layer 1"
     inkscape:groupmode="layer"
     id="layer1"
     transform="translate(0,-987.36218)">
    <path
       style="fill:#10b7d2;fill-opacity:1"
       inkscape:connector-curvature="0"
       d="M 62.342843,1006.8339 A 32.500011,32.417353 0 0 1 2.7337526,1032.6863 32.500011,32.417353 0 1 1 62.342843,1006.8339 z"
       id="path2991-7-3"
       inkscape:export-filename="/home/jhadvig/Workspace/Ortotech/app-related/images/clocks/clocks.png"
       inkscape:export-xdpi="90"
       inkscape:export-ydpi="90" />
    <path
       style="fill:#ecf0f1"
       inkscape:connector-curvature="0"
       d="m 59.135403,1019.7454 a 26.597408,26.529762 0 0 1 -53.1948104,0 26.597408,26.529762 0 1 1 53.1948104,0 z"
       id="path2993-0-0"
       inkscape:export-filename="/home/jhadvig/Workspace/Ortotech/app-related/images/clocks/clocks.png"
       inkscape:export-xdpi="90"
       inkscape:export-ydpi="90" />
    <path
       style="fill:#167180;fill-opacity:1"
       inkscape:connector-curvature="0"
       d="m 0.13041263,1018.1683 c -0.24441,5.0113 0.52012997,9.7278 2.58590997,14.4443 7.1569302,16.5078 26.2998104,24.1721 42.7607204,17.0973 12.67838,-5.6008 20.03124,-18.2764 19.48451,-31.2468 -0.59993,11.7912 -7.77548,22.9929 -19.48451,28.299 -16.46121,7.0748 -35.6029102,-0.5895 -42.7607204,-17.0973 -1.64464,-3.5374 -2.42366997,-7.6643 -2.58620997,-11.4965 z"
       id="path2995-4-8"
       inkscape:export-filename="/home/jhadvig/Workspace/Ortotech/app-related/images/clocks/clocks.png"
       inkscape:export-xdpi="90"
       inkscape:export-ydpi="90" />
    <path
       style="fill:#34495e;fill-opacity:1"
       inkscape:connector-curvature="0"
       d="m 32.480673,998.36418 c -0.897,0 -1.625,0.74676 -1.625,2.41782 l 0,12.1025 0,3.0257 3.25,0 0,-3.0257 0,-12.1025 c 0,-1.67106 -0.728,-2.41782 -1.625,-2.41782 z"
       id="path2999-7-9"
       sodipodi:nodetypes="ssccccss"
       inkscape:export-filename="/home/jhadvig/Workspace/Ortotech/app-related/images/clocks/clocks.png"
       inkscape:export-xdpi="90"
       inkscape:export-ydpi="90" />
    <path
       style="fill:#34495e;fill-opacity:1"
       inkscape:connector-curvature="0"
       d="m 53.603273,1019.7849 c 0,-0.8947 -0.74866,-1.6208 -2.42396,-1.6208 l -12.13333,0 -3.03333,0 0,3.2417 3.03333,0 12.13333,0 c 1.6753,0 2.42396,-0.7261 2.42396,-1.6209 z"
       id="path2999-5-6-4"
       sodipodi:nodetypes="ssccccss"
       inkscape:export-filename="/home/jhadvig/Workspace/Ortotech/app-related/images/clocks/clocks.png"
       inkscape:export-xdpi="90"
       inkscape:export-ydpi="90" />
    <rect
       style="fill:#c0392b;fill-opacity:1;fill-rule:nonzero;stroke:none"
       id="rect3044-0-2"
       width="16.800446"
       height="1.5723232"
       x="-673.92688"
       y="784.97705"
       ry="0"
       rx="0"
       transform="matrix(0.74948993,-0.66201574,0.66390823,0.74781406,0,0)"
       inkscape:export-filename="/home/jhadvig/Workspace/Ortotech/app-related/images/clocks/clocks.png"
       inkscape:export-xdpi="90"
       inkscape:export-ydpi="90" />
    <path
       style="fill:#34495e"
       inkscape:connector-curvature="0"
       d="m 32.538883,1014.0414 c -3.26564,0 -5.91066,2.653 -5.91066,5.8956 0,3.2426 2.64502,5.8956 5.91066,5.8956 3.26565,0 5.91067,-2.653 5.91067,-5.8956 0,-3.2426 -2.64502,-5.8956 -5.91067,-5.8956 z m 0,2.9478 c 1.63135,0 2.95534,1.1791 2.95534,2.9478 0,1.4739 -1.32399,2.9478 -2.95534,2.9478 -1.63134,0 -2.95533,-1.4739 -2.95533,-2.9478 0,-1.7687 1.32399,-2.9478 2.95533,-2.9478 z"
       id="path3003-4-1"
       inkscape:export-filename="/home/jhadvig/Workspace/Ortotech/app-related/images/clocks/clocks.png"
       inkscape:export-xdpi="90"
       inkscape:export-ydpi="90" />
    <path
       sodipodi:type="arc"
       style="fill:#c0392b;fill-opacity:1;fill-rule:evenodd;stroke:none"
       id="path3814-7-4"
       sodipodi:cx="-154"
       sodipodi:cy="90.0625"
       sodipodi:rx="1.75"
       sodipodi:ry="1.8125"
       d="m -152.25,90.0625 a 1.75,1.8125 0 1 1 -3.5,0 1.75,1.8125 0 1 1 3.5,0 z"
       transform="matrix(1.1879308,0,0,1.1849095,200.33739,926.70668)"
       inkscape:export-filename="/home/jhadvig/Workspace/Ortotech/app-related/images/clocks/clocks.png"
       inkscape:export-xdpi="90"
       inkscape:export-ydpi="90" />
  </g>
</svg>
